Coordinates
version=1
nRows=65
nColumns=12
inDegrees=yes

Units are S.I. units (second, meters, Newtons, ...)
Angles are in degrees

endheader
time	SC_y	SC_z	SC_x	AC_y	AC_z	AC_x	GH_y	GH_z	GH_yy	EL_x	PS_y
       0.0              -49.01          36.06          74.65          39.46          5.644          6.776         -136.2           37.3         -111.2          67.71          6.192
   0.01815              -49.01          36.06          74.65          39.46          5.645          6.774         -136.2           37.3         -111.2          67.71          6.207
   0.03629               -49.0          36.06          74.64          39.46          5.645          6.773         -136.2           37.3         -111.2          67.72          6.224
   0.05444               -49.0          36.06          74.63          39.47          5.646          6.771         -136.2          37.29         -111.2          67.72          6.241
   0.07258               -49.0          36.06          74.62          39.47          5.647           6.77         -136.2          37.29         -111.2          67.72           6.26
   0.09073              -48.99          36.06          74.62          39.47          5.648          6.768         -136.2          37.29         -111.2          67.72          6.279
    0.1089              -48.99          36.06          74.61          39.47          5.648          6.767         -136.2          37.28         -111.2          67.72          6.301
     0.127              -48.99          36.06           74.6          39.47          5.649          6.765         -136.2          37.28         -111.2          67.72          6.323
    0.1452              -48.98          36.05          74.59          39.47           5.65          6.763         -136.2          37.28         -111.2          67.72          6.347
    0.1633              -48.98          36.05          74.58          39.48          5.651          6.761         -136.2          37.27         -111.2          67.72          6.373
    0.1815              -48.97          36.05          74.56          39.48          5.653          6.758         -136.2          37.27         -111.2          67.72          6.401
    0.1996              -48.97          36.05          74.55          39.48          5.654          6.756         -136.2          37.26         -111.2          67.72          6.431
    0.2178              -48.96          36.05          74.54          39.48          5.655          6.753         -136.2          37.26         -111.2          67.72          6.463
    0.2359              -48.96          36.05          74.52          39.49          5.656           6.75         -136.2          37.25         -111.2          67.72          6.498
     0.254              -48.95          36.05           74.5          39.49          5.658          6.747         -136.2          37.25         -111.2          67.72          6.536
    0.2722              -48.95          36.05          74.49          39.49           5.66          6.744         -136.2          37.24         -111.2          67.73          6.577
    0.2903              -48.94          36.05          74.47           39.5          5.661           6.74         -136.2          37.24         -111.2          67.73          6.621
    0.3085              -48.93          36.05          74.45           39.5          5.663          6.736         -136.2          37.23         -111.2          67.73           6.67
    0.3266              -48.92          36.05          74.42          39.51          5.666          6.732         -136.2          37.22         -111.2          67.73          6.722
    0.3448              -48.91          36.05           74.4          39.51          5.668          6.727         -136.2          37.21         -111.2          67.73           6.78
    0.3629               -48.9          36.05          74.37          39.52          5.671          6.722         -136.2           37.2         -111.2          67.73          6.844
    0.3811              -48.89          36.05          74.34          39.52          5.673          6.716         -136.1          37.19         -111.2          67.74          6.914
    0.3992              -48.88          36.05          74.31          39.53          5.676          6.709         -136.1          37.18         -111.2          67.74          6.991
    0.4174              -48.87          36.05          74.27          39.54           5.68          6.702         -136.1          37.16         -111.2          67.74          7.077
    0.4355              -48.85          36.04          74.23          39.54          5.684          6.694         -136.1          37.15         -111.2          67.74          7.172
    0.4536              -48.83          36.04          74.18          39.55          5.688          6.686         -136.1          37.13         -111.2          67.75          7.278
    0.4718              -48.81          36.04          74.13          39.56          5.693          6.676         -136.1          37.11         -111.2          67.75          7.397
    0.4899              -48.79          36.04          74.07          39.57          5.698          6.665         -136.1          37.09         -111.2          67.76          7.531
    0.5081              -48.77          36.04          74.01          39.59          5.705          6.652         -136.0          37.07         -111.2          67.76          7.682
    0.5262              -48.74          36.04          73.93           39.6          5.711          6.638         -136.0          37.04         -111.2          67.77          7.854
    0.5444              -48.71          36.03          73.85          39.62          5.719          6.622         -136.0          37.01         -111.2          67.77           8.05
    0.5625              -48.67          36.03          73.75          39.63          5.729          6.603         -136.0          36.98         -111.2          67.78          8.275
    0.5807              -48.63          36.03          73.63          39.66          5.739          6.582         -135.9          36.94         -111.2          67.79          8.535
    0.5988              -48.58          36.02           73.5          39.68          5.751          6.557         -135.9          36.89         -111.2           67.8          8.837
     0.617              -48.53          36.02          73.35          39.71          5.766          6.528         -135.8          36.84         -111.2          67.81           9.19
    0.6351              -48.46          36.01          73.17          39.75          5.782          6.493         -135.8          36.77         -111.2          67.82          9.606
    0.6533              -48.38          36.01          72.95          39.79          5.803          6.452         -135.7           36.7         -111.2          67.83           10.1
    0.6714              -48.29           36.0          72.69          39.84          5.827          6.403         -135.6           36.6         -111.2          67.85          10.69
    0.6895              -48.17          35.99          72.38           39.9          5.856          6.344         -135.5          36.49         -111.2          67.87          11.41
    0.7077              -48.03          35.98           72.0          39.97          5.891          6.271         -135.4          36.36         -111.2           67.9          12.29
    0.7258              -47.86          35.96          71.53          40.06          5.935          6.182         -135.3          36.19         -111.2          67.94          13.37
     0.744              -47.64          35.95          70.94          40.17           5.99           6.07         -135.1          35.98         -111.2          67.98          14.72
    0.7621              -47.37          35.92           70.2          40.31          6.059           5.93         -134.8          35.72         -111.2          68.03          16.42
    0.7803              -47.02           35.9          69.26          40.49          6.146          5.751         -134.5          35.38         -111.2           68.1          18.58
    0.7984              -46.58          35.86          68.06          40.72          6.258          5.522         -134.1          34.95         -111.2          68.18          21.34
    0.8166              -46.01          35.81          66.52          41.01          6.402          5.229         -133.7           34.4         -111.2          68.29          24.89
    0.8347              -45.28          35.76          64.54          41.39          6.586          4.854         -133.0           33.7         -111.2          68.43          29.42
    0.8529              -44.37          35.68          62.06          41.86          6.817          4.383         -132.2          32.82         -111.2           68.6          35.12
     0.871              -43.26          35.59          59.04          42.44          7.098          3.808         -131.3          31.74         -111.2          68.82          42.06
    0.8892              -41.97          35.49          55.54          43.11          7.424          3.142         -130.2           30.5         -111.2          69.07          50.11
    0.9073              -40.57          35.37          51.74          43.83          7.777          2.421         -129.0          29.15         -111.2          69.33          58.83
    0.9254              -39.17          35.26          47.95          44.56          8.131            1.7         -127.8           27.8         -111.2           69.6          67.54
    0.9436              -37.88          35.16          44.45          45.23          8.457          1.034         -126.6          26.55         -111.2          69.85          75.59
    0.9617              -36.77          35.07          41.42           45.8          8.738         0.4601         -125.7          25.47         -111.2          70.06          82.54
    0.9799              -35.86          34.99          38.94          46.28          8.969       -0.01132         -124.9          24.59         -111.2          70.24          88.23
     0.998              -35.13          34.94          36.97          46.65          9.153        -0.3862         -124.3          23.89         -111.2          70.38          92.77
     1.016              -34.56          34.89          35.43          46.95          9.297        -0.6797         -123.8          23.34         -111.2          70.49          96.31
     1.034              -34.12          34.85          34.22          47.18          9.409        -0.9084         -123.4          22.91         -111.2          70.57          99.08
     1.052              -33.77          34.83          33.28          47.36          9.496         -1.087         -123.1          22.57         -111.2          70.64          101.2
     1.071               -33.5           34.8          32.54           47.5          9.565         -1.228         -122.9          22.31         -111.2          70.69          102.9
     1.089              -33.28          34.79          31.96          47.61           9.62         -1.339         -122.7           22.1         -111.2          70.73          104.3
     1.107              -33.11          34.77          31.49           47.7          9.664         -1.429         -122.5          21.93         -111.2          70.77          105.4
     1.125              -32.97          34.76           31.1          47.77          9.699         -1.501         -122.4           21.8         -111.2          70.79          106.2
     1.143              -32.86          34.75          30.79          47.83          9.728         -1.561         -122.3          21.69         -111.2          70.82          107.0
     1.161              -32.76          34.74          30.53          47.88          9.752          -1.61         -122.2           21.6         -111.2          70.83          107.6
